<?xml version="1.0" encoding="UTF-8"?>
<svg id="logosandtypes_com" data-name="logosandtypes com" xmlns="http://www.w3.org/2000/svg" viewBox="0 0 150 150">
  <defs>
    <style>
      .cls-1 {
        fill: currentColor;
      }

      .cls-2 {
        fill: none;
      }
    </style>
  </defs>
  <path class="cls-2" d="M0,0H150V150H0V0Z"/>
  <path class="cls-1" d="M117.5,82.14c1.91-3.94,2.79-8.05,2.79-12.68,0-16.5-13.25-30.22-30-30.22-3.4-.01-6.78,.57-10,1.71,0-18.92-13.74-31.94-29.99-31.94s-29.99,12.26-29.99,32.24V107.75c0,19.94,13.72,32.24,29.99,32.24,14.09,0,21.92-9.68,27.1-14.78,1.74,2.53,10.34,14.78,27.89,14.78,16.54,0,30-13.56,30-30.22,0-12.17-7.17-22.87-17.79-27.63Zm-47.88,36.66c-7.05,7.1-11.42,11.12-19.32,11.12-9.95,0-19.99-6.86-19.99-22.17V41.25c0-15.31,10.04-22.16,19.99-22.16h0c9.96-.01,20,6.85,20,22.16v58.44c0,5.77,.83,11.13,2.44,15.97l-3.12,3.14Zm11.33-11.42c-.43-2.42-.65-4.99-.65-7.69V52.01c3.02-1.77,6.43-2.69,9.99-2.69,11.46,0,20,9.44,20,20.15,0,5.01-1.29,9.65-7.61,16.01l-21.73,21.9Zm24.34,22.54c-9.06,0-16.32-4.47-20.64-12.02l26.97-27.26c8.06,2.69,13.67,10.34,13.67,19.13,0,11.11-8.97,20.15-20,20.15Z"/>
</svg>